<svg xmlns="http://www.w3.org/2000/svg" xmlns:xlink="http://www.w3.org/1999/xlink" width="48" zoomAndPan="magnify" viewBox="0 0 36 36.000001" height="48" preserveAspectRatio="xMidYMid meet" version="1.0"><defs><clipPath id="7564f8b4f4"><path d="M 3.152344 6.984375 L 17 6.984375 L 17 28.148438 L 3.152344 28.148438 Z M 3.152344 6.984375 " clip-rule="nonzero"/></clipPath><clipPath id="59aaea5adb"><path d="M 19 6.984375 L 33 6.984375 L 33 28.148438 L 19 28.148438 Z M 19 6.984375 " clip-rule="nonzero"/></clipPath></defs><g clip-path="url(#7564f8b4f4)"><path fill="#ffffff" d="M 10.601562 27.117188 C 10.601562 27.105469 9.386719 27.105469 9.277344 27.105469 L 4.070312 27.105469 C 4.0625 27.105469 4.074219 27.125 4.074219 27.105469 L 4.074219 8.351562 C 4.074219 8.285156 4.082031 7.902344 4.066406 7.902344 L 15.835938 7.902344 C 15.980469 7.902344 15.90625 7.90625 15.9375 7.78125 C 15.875 8.011719 15.808594 8.246094 15.746094 8.480469 C 14.867188 11.652344 13.988281 14.824219 13.109375 17.996094 C 12.304688 20.898438 11.5 23.800781 10.699219 26.703125 C 10.671875 26.800781 10.644531 26.898438 10.617188 26.996094 C 10.460938 27.5625 11.339844 27.800781 11.496094 27.238281 C 12.132812 24.929688 12.773438 22.621094 13.414062 20.3125 C 14.382812 16.808594 15.351562 13.308594 16.324219 9.804688 C 16.449219 9.34375 16.578125 8.882812 16.707031 8.421875 C 16.808594 8.054688 16.929688 7.742188 16.671875 7.375 C 16.34375 6.914062 15.796875 6.992188 15.308594 6.992188 C 14.617188 6.992188 13.921875 6.992188 13.230469 6.992188 L 4.066406 6.992188 C 3.566406 6.992188 3.164062 7.40625 3.164062 7.902344 C 3.164062 7.980469 3.164062 8.058594 3.164062 8.136719 L 3.164062 26.652344 C 3.164062 26.988281 3.125 27.339844 3.328125 27.632812 C 3.703125 28.160156 4.542969 28.015625 5.109375 28.015625 L 10.578125 28.015625 C 11.109375 28.015625 11.464844 27.628906 11.511719 27.117188 C 11.5625 26.53125 10.652344 26.535156 10.601562 27.117188 " fill-opacity="1" fill-rule="nonzero"/></g><g clip-path="url(#59aaea5adb)"><path fill="#ffffff" d="M 26.609375 27.117188 C 26.609375 27.105469 25.394531 27.105469 25.289062 27.105469 L 20.078125 27.105469 C 20.070312 27.105469 20.082031 27.125 20.082031 27.105469 L 20.082031 8.351562 C 20.082031 8.285156 20.09375 7.902344 20.074219 7.902344 L 31.84375 7.902344 C 31.992188 7.902344 31.914062 7.90625 31.949219 7.78125 C 31.882812 8.011719 31.820312 8.246094 31.753906 8.480469 C 30.875 11.652344 29.996094 14.824219 29.117188 17.996094 C 28.316406 20.898438 27.511719 23.800781 26.707031 26.703125 C 26.679688 26.800781 26.652344 26.898438 26.625 26.996094 C 26.46875 27.5625 27.347656 27.800781 27.503906 27.238281 C 28.144531 24.929688 28.78125 22.621094 29.421875 20.3125 C 30.390625 16.808594 31.363281 13.308594 32.332031 9.804688 C 32.460938 9.34375 32.585938 8.882812 32.714844 8.421875 C 32.816406 8.054688 32.9375 7.742188 32.679688 7.375 C 32.355469 6.914062 31.804688 6.992188 31.316406 6.992188 C 30.625 6.992188 29.933594 6.992188 29.238281 6.992188 L 20.074219 6.992188 C 19.578125 6.992188 19.171875 7.40625 19.171875 7.902344 L 19.171875 26.652344 C 19.171875 26.988281 19.132812 27.339844 19.339844 27.632812 C 19.714844 28.160156 20.550781 28.015625 21.117188 28.015625 L 26.585938 28.015625 C 27.121094 28.015625 27.472656 27.628906 27.519531 27.117188 C 27.574219 26.53125 26.660156 26.535156 26.609375 27.117188 " fill-opacity="1" fill-rule="nonzero"/></g></svg>