<svg width="900" height="875" viewBox="0 0 900 875" fill="none" xmlns="http://www.w3.org/2000/svg">
    <rect width="900" height="875" fill="#6F1559" />
    <mask id="mask0_19_26" style="mask-type:alpha" maskUnits="userSpaceOnUse" x="0" y="275"
        width="600" height="600">
        <rect y="275" width="600" height="600" fill="#6F1559" />
    </mask>
    <g mask="url(#mask0_19_26)">
        <path
            d="M224.219 759.171V764.417C224.14 765.961 224.044 767.503 223.932 769.043C223.046 781.219 219.237 793.119 211.806 802.726C204.526 812.14 194.178 818.561 182.698 821.816C176.957 823.444 171.028 824.401 164.91 824.688C163.969 824.732 163.027 824.787 162.086 824.854H137.468C136.515 824.663 135.71 824.263 135.055 823.654C134.628 823.258 134.266 822.754 133.968 822.141C129.246 812.448 124.598 802.928 120.023 793.579C119.997 793.526 119.957 793.511 119.904 793.532C95.9347 803.38 71.6776 813.347 47.1327 823.435C45.6186 824.058 44.454 824.435 43.6389 824.567C40.915 825.009 38.3332 824.574 35.8935 823.261C35.054 822.808 34.1728 822.204 33.25 821.446C28.8414 817.821 27.7327 811.619 30.1803 806.696C46.5249 773.834 63.1005 740.513 79.9073 706.732C80.4956 705.548 81.1817 704.447 81.9653 703.429C85.2481 699.169 90.8774 697.415 96.0546 699.031C99.8403 700.215 102.598 702.58 104.327 706.125C112.078 722.016 119.837 737.897 127.604 753.77C127.897 754.367 128.032 754.888 128.009 755.333C127.969 756.112 127.516 756.692 126.651 757.072C120.122 759.937 113.712 762.75 107.421 765.513C106.282 766.014 104.937 765.663 104.388 764.535C100.173 755.863 96.1204 747.567 92.2314 739.648C92.2247 739.634 92.2142 739.622 92.2008 739.613C92.1875 739.605 92.172 739.6 92.1561 739.6C92.1401 739.6 92.1244 739.605 92.1106 739.613C92.0971 739.622 92.0859 739.634 92.0786 739.648L66.8169 790.432C66.7824 790.5 66.8003 790.519 66.8707 790.49C98.1965 777.497 129.298 764.585 160.174 751.755C161.904 751.037 163.224 750.604 164.135 750.455C165.322 750.259 166.517 750.249 167.722 750.422C168.194 750.491 168.655 750.549 169.106 750.597C172.564 750.964 176.37 751.359 180.521 751.783C181.367 751.869 182.02 752.04 182.483 752.295C183.787 753.019 184.553 754.515 184.22 755.991C184.111 756.471 183.845 757.019 183.423 757.636C181.645 760.234 179.868 762.906 178.093 765.653C176.773 767.695 175.974 768.882 175.695 769.213C174.487 770.654 173.08 771.704 171.474 772.365C162.397 776.096 153.325 779.822 144.257 783.544C144.244 783.549 144.232 783.557 144.221 783.567C144.211 783.578 144.203 783.59 144.198 783.603C144.193 783.617 144.19 783.631 144.191 783.646C144.191 783.66 144.195 783.675 144.201 783.688L152.175 800.02C152.184 800.038 152.198 800.054 152.215 800.064C152.232 800.075 152.252 800.08 152.272 800.08C158.691 799.992 165.126 799.265 171.108 797.394C175.76 795.939 180.084 793.823 183.735 790.8C188.114 787.174 191.281 782.558 193.237 776.954C195.142 771.495 195.747 765.562 195.642 759.685C195.463 749.63 192.768 739.457 185.158 732.413C181.375 728.91 177.024 726.413 172.104 724.922C169.969 724.274 167.639 723.793 165.115 723.477C163.796 723.314 162.375 723.233 160.852 723.234C149.414 723.253 138.321 723.255 127.572 723.241C126.81 723.241 126.067 722.743 125.725 722.076C122.316 715.404 118.955 708.821 115.642 702.327C114.875 700.829 115.864 699.152 117.553 699.15C132.72 699.13 147.487 699.13 161.856 699.15C164.417 699.153 167.481 699.357 171.045 699.763C175.002 700.213 178.895 700.978 182.726 702.058C188.617 703.72 194.121 706.205 199.237 709.513C208.405 715.439 215.296 724.164 219.41 734.419C221.95 740.746 223.375 747.564 223.915 754.381C223.971 755.072 224.072 756.668 224.219 759.171Z"
            fill="white" />
        <circle cx="126.562" cy="761.719" r="154.75" stroke="#F2AE1C" stroke-opacity="0.35"
            stroke-width="3" />
        <circle cx="126.562" cy="761.719" r="232.875" stroke="#F2AE1C" stroke-opacity="0.35"
            stroke-width="3" />
        <circle cx="126.562" cy="761.719" r="311" stroke="#F2AE1C" stroke-opacity="0.35"
            stroke-width="3" />
    </g>
</svg>
    