<svg id="Capa_1" enable-background="new 0 0 504.082 504.082" height="512"
    viewBox="0 0 504.082 504.082" width="512" xmlns="http://www.w3.org/2000/svg">
    <g>
        <path
            d="m242.916 332.294c41.911 0 76.009-34.097 76.009-76.008s-34.098-76.008-76.009-76.008c-12.439 0-24.793 3.083-35.726 8.917-3.655 1.95-5.037 6.493-3.087 10.148 1.95 3.654 6.492 5.036 10.147 3.086 8.768-4.678 18.68-7.151 28.665-7.151 33.641 0 61.009 27.368 61.009 61.008s-27.368 61.008-61.009 61.008c-33.64 0-61.008-27.368-61.008-61.008 0-12.513 3.773-24.547 10.913-34.803 2.366-3.399 1.529-8.074-1.87-10.44s-8.075-1.529-10.44 1.87c-8.898 12.783-13.603 27.781-13.603 43.373.001 41.911 34.098 76.008 76.009 76.008z" />
        <path
            d="m242.917 302.294c25.369 0 46.008-20.639 46.008-46.008s-20.639-46.008-46.008-46.008-46.009 20.639-46.009 46.008 20.64 46.008 46.009 46.008zm0-77.016c17.098 0 31.008 13.91 31.008 31.008s-13.91 31.008-31.008 31.008c-17.099 0-31.009-13.91-31.009-31.008s13.91-31.008 31.009-31.008z" />
        <path
            d="m242.917 163.618c12.321 0 22.346-10.024 22.346-22.346 0-12.321-10.024-22.346-22.346-22.346s-22.347 10.024-22.347 22.346c0 12.321 10.025 22.346 22.347 22.346zm0-29.692c4.051 0 7.346 3.295 7.346 7.346s-3.295 7.346-7.346 7.346-7.347-3.295-7.347-7.346 3.296-7.346 7.347-7.346z" />
        <path
            d="m357.931 278.632c12.322 0 22.347-10.024 22.347-22.346s-10.024-22.346-22.347-22.346c-12.321 0-22.346 10.024-22.346 22.346s10.024 22.346 22.346 22.346zm0-29.692c4.051 0 7.347 3.295 7.347 7.346s-3.296 7.346-7.347 7.346-7.346-3.295-7.346-7.346 3.295-7.346 7.346-7.346z" />
        <path
            d="m242.917 348.955c-12.322 0-22.347 10.024-22.347 22.346 0 12.321 10.024 22.346 22.347 22.346 12.321 0 22.346-10.024 22.346-22.346s-10.025-22.346-22.346-22.346zm0 29.692c-4.051 0-7.347-3.295-7.347-7.346s3.296-7.346 7.347-7.346 7.346 3.295 7.346 7.346c0 4.05-3.295 7.346-7.346 7.346z" />
        <path
            d="m150.248 256.286c0-12.322-10.024-22.346-22.346-22.346s-22.347 10.024-22.347 22.346 10.024 22.346 22.347 22.346c12.322 0 22.346-10.024 22.346-22.346zm-22.346 7.346c-4.051 0-7.347-3.295-7.347-7.346s3.296-7.346 7.347-7.346 7.346 3.295 7.346 7.346-3.295 7.346-7.346 7.346z" />
        <path
            d="m158.245 187.236c2.021 0 4.035-.812 5.513-2.413l6.362-6.893c2.81-3.043 2.62-7.789-.424-10.598-3.045-2.81-7.79-2.62-10.598.424l-6.362 6.893c-2.81 3.043-2.62 7.789.424 10.598 1.443 1.331 3.266 1.989 5.085 1.989z" />
        <path
            d="m321.273 183.49c1.442 1.331 3.267 1.989 5.085 1.989 2.021 0 4.035-.812 5.514-2.413 2.809-3.044 2.619-7.789-.425-10.598l-6.894-6.362c-3.045-2.81-7.79-2.619-10.599.424-2.809 3.044-2.619 7.789.425 10.598z" />
        <path
            d="m159.099 344.817c1.479 1.602 3.492 2.413 5.513 2.413 1.819 0 3.644-.658 5.085-1.989 3.044-2.81 3.233-7.555.424-10.598l-6.362-6.893c-2.81-3.044-7.555-3.233-10.598-.424-3.044 2.81-3.233 7.555-.424 10.598z" />
        <path
            d="m321.273 329.082-6.894 6.363c-3.044 2.81-3.233 7.554-.424 10.598 1.478 1.602 3.492 2.413 5.513 2.413 1.818 0 3.643-.658 5.085-1.989l6.894-6.363c3.044-2.81 3.233-7.554.424-10.598-2.808-3.042-7.553-3.232-10.598-.424z" />
        <path
            d="m490.482 172.935c7.438-8.867 11.483-19.941 11.483-31.663 0-27.237-22.159-49.396-49.396-49.396-2.134 0-4.275.141-6.406.421-33.75-41.811-78.617-71.764-130.029-86.751-4.995-1.456-10.249-.497-14.418 2.63-3.565 2.674-5.818 6.556-6.413 10.878-17.144-3.768-34.721-5.682-52.387-5.682-64.885 0-125.887 25.268-171.768 71.148s-71.148 106.881-71.148 171.766 25.268 125.887 71.148 171.768 106.883 71.148 171.768 71.148c52.069 0 101.713-16.235 143.565-46.951 38.647-28.364 67.6-66.69 84.145-111.232 2.189 1.014 4.541 1.53 6.898 1.53 2.197 0 4.399-.442 6.478-1.332 4.503-1.927 7.885-5.721 9.279-10.41 7.167-24.105 10.801-49.178 10.801-74.522 0-28.527-4.573-56.543-13.6-83.35zm-112.876 267.224c-39.261 28.813-85.836 44.043-134.69 44.043-60.879 0-118.113-23.708-161.161-66.755s-66.755-100.282-66.755-161.161 23.707-118.113 66.755-161.161 100.282-66.755 161.161-66.755c17.632 0 35.167 2.03 52.214 6.024v38.974.068 21.287c-16.458-5.332-34.003-8.225-52.214-8.225-93.622 0-169.789 76.167-169.789 169.79 0 42.188 15.58 82.636 43.869 113.894 2.78 3.072 7.523 3.307 10.593.528 3.071-2.78 3.308-7.522.528-10.594-25.788-28.495-39.99-65.368-39.99-103.828 0-85.351 69.438-154.79 154.789-154.79 85.352 0 154.79 69.438 154.79 154.79s-69.438 154.79-154.79 154.79c-33.478 0-65.342-10.517-92.15-30.414-3.327-2.468-8.022-1.774-10.492 1.553-2.469 3.326-1.773 8.023 1.553 10.492 29.413 21.83 64.369 33.369 101.09 33.369 75.83 0 140.203-49.971 161.934-118.71l19.024 9.74c.014.008.029.014.043.022l33.248 17.023c-15.418 42.485-42.817 79.04-79.56 106.006zm101.296-113.625c-.155.522-.521.774-.801.894-.285.123-.732.215-1.234-.042l-40.604-20.789c2.293-8.816 4.001-17.839 5.067-26.909.484-4.114-2.459-7.841-6.572-8.324-4.107-.487-7.841 2.458-8.324 6.573-.856 7.281-2.16 14.528-3.874 21.644l-13.762-7.046c2.551-11.685 3.908-23.81 3.908-36.249 0-69.758-42.291-129.815-102.576-155.905v-16.223c31.151 12.18 58.315 32.528 79.021 59.298 23.235 30.04 36.488 65.919 38.326 103.758.195 4.014 3.51 7.136 7.485 7.136.122 0 .246-.003.37-.009 4.137-.201 7.328-3.718 7.127-7.855-1.987-40.924-16.318-79.726-41.443-112.208-23.578-30.483-54.917-53.256-90.886-66.126v-46.81c0-.602.319-.967.587-1.168.255-.192.67-.386 1.219-.229 49.817 14.523 93.119 43.962 125.225 85.136 1.794 2.302 4.76 3.356 7.608 2.694 2.575-.597 5.2-.9 7.801-.9 18.967 0 34.396 15.43 34.396 34.396 0 9.295-3.656 18.007-10.295 24.531-2.083 2.047-2.788 5.116-1.809 7.867 9.436 26.484 14.22 54.28 14.22 82.617 0 23.897-3.425 47.531-10.18 70.248z" />
        <path
            d="m452.569 120.732c-11.326 0-20.54 9.214-20.54 20.54s9.214 20.54 20.54 20.54 20.54-9.214 20.54-20.54-9.213-20.54-20.54-20.54zm0 26.08c-3.055 0-5.54-2.485-5.54-5.54s2.485-5.54 5.54-5.54 5.54 2.485 5.54 5.54-2.485 5.54-5.54 5.54z" />
        <path
            d="m341.347 45.391-4.085-1.86c-3.772-1.718-8.217-.052-9.934 3.717-1.717 3.77-.053 8.217 3.717 9.934l4.085 1.86c1.008.459 2.064.676 3.104.676 2.849 0 5.572-1.632 6.83-4.394 1.716-3.769.052-8.216-3.717-9.933z" />
        <path
            d="m465.782 279.989c-4.072-.743-7.979 1.962-8.72 6.038l-1.168 6.426c-.741 4.075 1.962 7.979 6.038 8.72.453.083.904.123 1.35.123 3.555 0 6.712-2.539 7.37-6.16l1.168-6.426c.742-4.076-1.962-7.98-6.038-8.721z" />
    </g>
</svg>