<svg id="Capa_1" enable-background="new 0 0 512 512" height="512" viewBox="0 0 512 512" width="512"
    xmlns="http://www.w3.org/2000/svg">
    <g>
        <path
            d="m108.241 385.778c-19.299 0-35 15.701-35 35s15.701 35 35 35 35-15.701 35-35-15.701-35-35-35zm0 50c-8.271 0-15-6.729-15-15s6.729-15 15-15 15 6.729 15 15-6.729 15-15 15z" />
        <path
            d="m490.865 232.572-18.929-26.529c-3.209-4.496-9.454-5.541-13.948-2.332-4.496 3.208-5.54 9.453-2.332 13.948l18.929 26.529c.7.982.47 2.353-.508 3.052l-61.175 43.648-78.514-110.032 7.277-14.132 49.669-35.444c.982-.701 2.354-.469 3.052.508l14.805 20.749c3.208 4.496 9.453 5.54 13.948 2.332 4.496-3.207 5.54-9.453 2.332-13.948l-14.809-20.756c-7.111-9.948-20.994-12.265-30.944-5.165l-18.052 12.882 10.145-19.701c2.719-5.263 3.224-11.271 1.421-16.916-1.805-5.651-5.703-10.259-10.978-12.975l-122.761-63.21c-5.266-2.712-11.275-3.212-16.918-1.407-5.645 1.806-10.248 5.701-12.961 10.969l-10.15 19.713v-22.172c0-12.232-9.952-22.183-22.184-22.183h-138.078c-12.232 0-22.183 9.951-22.183 22.183v398.595c0 50.3 40.922 91.222 91.223 91.222 19.78 0 38.108-6.331 53.069-17.069.228-.137.452-.284.672-.441l95.93-68.45 79.222-56.525c.003-.002.005-.003.008-.005.002-.002.004-.003.006-.005l148.55-105.99c9.949-7.11 12.267-20.992 5.166-30.943zm-94.245 69.932-62.954 44.917-49.397-69.232 39.819-77.332zm-142.183 101.448-20.285-28.43 39.82-77.333 43.415 60.848zm-23.921-65.059-31.053-15.992v-86.975l66.453 34.217-2.267 4.402c-.022.045-.047.088-.069.133zm44.556-86.531-75.608-38.931v-86.994l111.013 57.166zm-95.608-57.695h-142.445v-77.333h142.445zm-142.445 20h142.445v77.333h-142.445zm162.445 130.73 21.897 11.277-21.897 42.525zm24.389 50.125 14.303 20.046-38.928 27.777zm3.542-361.723c.341-.663.881-.951 1.274-1.077.394-.126 1.002-.204 1.668.139l122.759 63.209c.666.343.956.885 1.082 1.279.125.39.202.994-.144 1.663l-34.401 66.81-120.169-61.881v-15.896zm-188.193-13.799h138.078c1.204 0 2.184.979 2.184 2.183v75.15h-142.445v-75.15c0-1.204.979-2.183 2.183-2.183zm69.039 472c-39.272 0-71.222-31.95-71.222-71.222v-108.778h142.445v108.778c0 39.272-31.951 71.222-71.223 71.222z" />
        <circle cx="440.562" cy="179.29" r="10" />
    </g>
</svg>