<svg id="Layer_1" height="512" viewBox="0 0 512 512" width="512" xmlns="http://www.w3.org/2000/svg"
    data-name="Layer 1">
    <path d="m290.65 312.24a34.64 34.64 0 1 1 -1.36-9.62 34.69 34.69 0 0 1 1.36 9.62z" />
    <path d="m334.28 234-37 52.61a48.82 48.82 0 0 0 -15.63-15.63z" />
    <path
        d="m90.69 399.6-26.92 15.54a218.06 218.06 0 0 1 -25.66-95.9h31a186.67 186.67 0 0 0 21.58 80.36z" />
    <path d="m90.69 224.88a185.65 185.65 0 0 0 -21.56 80.36h-31a216.6 216.6 0 0 1 25.72-95.87z" />
    <path
        d="m156.53 154a188.51 188.51 0 0 0 -58.82 58.82l-26.85-15.5a219.17 219.17 0 0 1 70.14-70.22z" />
    <path
        d="m249 94.35v31a185.65 185.65 0 0 0 -80.36 21.56l-15.51-26.86a216.6 216.6 0 0 1 95.87-25.7z" />
    <path
        d="m358.87 120.07-15.51 26.86a185.65 185.65 0 0 0 -80.36-21.56v-31a216.6 216.6 0 0 1 95.87 25.7z" />
    <path
        d="m441.14 197.27-26.85 15.5a188.51 188.51 0 0 0 -58.82-58.77l15.53-26.9a219.17 219.17 0 0 1 70.14 70.17z" />
    <path
        d="m473.89 305.24h-31a185.65 185.65 0 0 0 -21.56-80.36l26.86-15.51a216.6 216.6 0 0 1 25.7 95.87z" />
    <path
        d="m473.89 319.24a218.06 218.06 0 0 1 -25.66 95.9l-26.92-15.54a186.67 186.67 0 0 0 21.55-80.36z" />
</svg>